<?xml version="1.0" standalone="no"?>
<!DOCTYPE svg PUBLIC "-//W3C//DTD SVG 20010904//EN"
 "http://www.w3.org/TR/2001/REC-SVG-20010904/DTD/svg10.dtd">
<svg version="1.0" xmlns="http://www.w3.org/2000/svg"
 width="293.000000pt" height="293.000000pt" viewBox="0 0 293.000000 293.000000"
 preserveAspectRatio="xMidYMid meet">
<metadata>
Created by potrace 1.14, written by Peter Selinger 2001-2017
</metadata>
<g transform="translate(0.000000,293.000000) scale(0.100000,-0.100000)"
fill="#000000" stroke="none">
<path d="M2054 2492 c-226 -224 -587 -580 -801 -792 -215 -212 -392 -389 -394
-395 -3 -6 112 -10 301 -12 167 -2 306 -5 308 -7 2 -3 -281 -365 -365 -466 -7
-8 -99 -123 -204 -255 -207 -259 -204 -256 -339 -424 -50 -62 -90 -114 -88
-116 2 -2 46 38 99 88 53 51 125 118 160 151 35 32 118 109 185 172 66 62 129
121 141 131 17 16 214 198 293 273 14 14 85 79 156 145 71 66 156 145 189 176
33 32 76 71 95 89 47 44 254 236 304 283 23 22 60 57 84 79 24 22 42 42 40 44
-3 3 -542 16 -670 16 -40 0 -46 8 -25 30 7 7 59 72 115 143 57 72 111 139 120
150 9 11 64 80 122 154 58 73 143 182 190 241 47 59 149 187 227 286 77 98
151 189 162 202 12 12 18 22 14 22 -4 -1 -193 -184 -419 -408z"/>
<path d="M1310 2753 c-152 -23 -288 -64 -410 -122 -237 -112 -441 -305 -574
-539 -70 -124 -133 -310 -153 -452 -10 -69 -10 -287 0 -362 28 -221 140 -473
286 -648 90 -108 222 -225 234 -209 26 32 276 353 296 378 14 19 46 60 71 90
75 92 260 329 260 333 0 2 -138 4 -307 6 -169 1 -309 4 -311 7 -2 2 305 312
682 689 l687 684 -63 30 c-94 43 -204 80 -295 98 -13 2 -35 7 -50 10 -33 7
-317 13 -353 7z"/>
<path d="M1989 2168 c-280 -358 -339 -434 -339 -440 0 -1 73 -4 163 -5 391 -6
547 -11 547 -16 -1 -5 -55 -58 -155 -152 -12 -11 -89 -83 -171 -161 -82 -77
-162 -153 -179 -168 -16 -16 -90 -85 -163 -154 -74 -69 -142 -133 -151 -142
-10 -8 -87 -80 -171 -160 -84 -80 -170 -161 -191 -180 -20 -19 -99 -93 -174
-164 l-136 -129 30 -13 c17 -7 45 -19 63 -27 18 -8 45 -19 61 -25 33 -14 180
-52 222 -58 16 -2 50 -7 75 -10 60 -8 238 -7 303 1 72 9 233 50 298 75 411
161 708 505 808 933 32 135 35 401 7 537 -42 203 -116 366 -242 535 -65 87
-224 245 -246 245 -4 0 -120 -145 -259 -322z"/>
</g>
</svg>
